<?xml version="1.0" standalone="no"?>
<!DOCTYPE svg PUBLIC "-//W3C//DTD SVG 20010904//EN"
 "http://www.w3.org/TR/2001/REC-SVG-20010904/DTD/svg10.dtd">
<svg version="1.0" xmlns="http://www.w3.org/2000/svg"
 width="225.000000pt" height="225.000000pt" viewBox="0 0 225.000000 225.000000"
 preserveAspectRatio="xMidYMid meet">
<metadata>
Created by potrace 1.11, written by Peter Selinger 2001-2013
</metadata>
<g transform="translate(0.000000,225.000000) scale(0.100000,-0.100000)"
fill="#000000" stroke="none">
<path d="M730 1744 c-91 -19 -224 -87 -280 -143 -123 -123 -121 -293 4 -409
23 -21 50 -43 60 -49 16 -9 14 -17 -29 -103 -26 -51 -41 -91 -33 -88 7 3 58
13 113 23 93 17 103 22 146 61 50 45 119 84 186 104 36 11 42 17 48 49 16 88
94 179 198 232 57 30 182 59 249 59 32 0 58 3 58 8 0 18 -72 112 -108 141 -57
45 -177 99 -257 116 -87 18 -268 18 -355 -1z"/>
<path d="M1270 1434 c-148 -40 -266 -128 -293 -220 -8 -27 -14 -50 -13 -50 0
-1 30 2 66 7 275 34 559 -127 560 -318 0 -48 -13 -42 140 -72 52 -11 96 -18
98 -16 2 2 -13 36 -33 76 -33 64 -35 73 -20 81 105 60 163 203 121 303 -38 90
-161 178 -297 210 -81 19 -256 19 -329 -1z"/>
</g>
</svg>
